<svg version="1.1" xmlns="http://www.w3.org/2000/svg" xmlns:xlink="http://www.w3.org/1999/xlink" width="164.66039" height="81.30333" viewBox="0,0,164.66039,81.30333"><defs><linearGradient x1="176.52521" y1="180" x2="303.47477" y2="180" gradientUnits="userSpaceOnUse" id="color-1"><stop offset="0" stop-color="#ff0000"/><stop offset="1" stop-color="#f100ff"/></linearGradient></defs><g transform="translate(-138.81439,-147.79356)"><g data-paper-data="{&quot;isPaintingLayer&quot;:true}" fill-rule="nonzero" stroke="none" stroke-linecap="butt" stroke-linejoin="miter" stroke-miterlimit="10" stroke-dasharray="" stroke-dashoffset="0" style="mix-blend-mode: normal"><path d="M180.47729,208.85124c-4.28489,-3.12657 -3.94574,-7.20151 -3.94574,-7.20151v-43.6176c0,0 0.42464,-5.31314 3.94574,-7.89689c3.5211,-2.58374 9.86436,-2.2368 9.86436,-2.2368h99.95881c0,0 5.21281,-0.84043 9.20673,2.2368c3.99392,3.07723 3.94574,7.89689 3.94574,7.89689v41.94c0,0 0.50038,4.79588 -3.28812,8.31991c-3.7885,3.52403 -9.86436,3.9144 -9.86436,3.9144h-99.30118c0,0 -6.23709,-0.22863 -10.52198,-3.3552z" fill="url(#color-1)" stroke-width="0"/><text transform="translate(139.06439,222.84689) scale(0.5,0.5)" font-size="40" xml:space="preserve" fill="#1dbd00" fill-rule="nonzero" stroke="none" stroke-width="1" stroke-linecap="butt" stroke-linejoin="miter" stroke-miterlimit="10" stroke-dasharray="" stroke-dashoffset="0" font-family="&quot;ヒラギノ角ゴ Pro W3&quot;, &quot;Hiragino Kaku Gothic Pro&quot;, Osaka, &quot;メイリオ&quot;, Meiryo, &quot;ＭＳ Ｐゴシック&quot;, &quot;MS PGothic&quot;" font-weight="normal" text-anchor="start" style="mix-blend-mode: normal"><tspan x="0" dy="0"> </tspan></text><text transform="translate(191.83002,186) scale(0.5,0.5)" font-size="40" xml:space="preserve" fill="#444444" fill-rule="nonzero" stroke="none" stroke-width="1" stroke-linecap="butt" stroke-linejoin="miter" stroke-miterlimit="10" stroke-dasharray="" stroke-dashoffset="0" font-family="Sans Serif" font-weight="normal" text-anchor="start" style="mix-blend-mode: normal"><tspan x="0" dy="0">100 clicks!</tspan></text><text transform="translate(200.49999,164.20467) scale(0.30622,0.30622)" font-size="40" xml:space="preserve" fill="#444444" fill-rule="nonzero" stroke="none" stroke-width="1" stroke-linecap="butt" stroke-linejoin="miter" stroke-miterlimit="10" stroke-dasharray="" stroke-dashoffset="0" font-family="Sans Serif" font-weight="normal" text-anchor="start" style="mix-blend-mode: normal"><tspan x="0" dy="0">You reached...</tspan></text></g></g></svg>