<svg version="1.1" xmlns="http://www.w3.org/2000/svg" xmlns:xlink="http://www.w3.org/1999/xlink" width="68" height="68" viewBox="0,0,68,68"><g transform="translate(-206,-146)"><g data-paper-data="{&quot;isPaintingLayer&quot;:true}" fill-rule="nonzero" stroke-linejoin="miter" stroke-miterlimit="10" stroke-dasharray="" stroke-dashoffset="0" style="mix-blend-mode: normal"><path d="M206,214v-68h68v68z" fill="none" stroke="none" stroke-width="0" stroke-linecap="butt"/><path d="M216.11762,202.62532c-2.71477,-3.20342 -2.1519,-9.25316 -2.1519,-9.25316v-26.68354c0,0 -0.57672,-6.69822 3.01266,-10.11392c3.58938,-3.4157 10.32911,-2.58228 10.32911,-2.58228h27.5443c0,0 7.28409,0.1606 9.46835,2.58228c2.18426,2.42168 1.72152,10.5443 1.72152,10.5443v27.97468c0,0 0.06467,6.22673 -2.58228,8.82278c-2.64695,2.59605 -8.60759,2.1519 -8.60759,2.1519h-30.12658c0,0 -5.89283,-0.23962 -8.60759,-3.44304z" fill="#ffffff" stroke="#000000" stroke-width="5" stroke-linecap="butt"/><path d="M229.24052,180h21.51899" fill="none" stroke="#000000" stroke-width="5" stroke-linecap="round"/><path d="M240.00001,169.24051v21.51899" fill="none" stroke="#000000" stroke-width="5" stroke-linecap="round"/></g></g></svg>