<svg version="1.1" xmlns="http://www.w3.org/2000/svg" xmlns:xlink="http://www.w3.org/1999/xlink" width="72.58696" height="64.5" viewBox="0,0,72.58696,64.5"><defs><linearGradient x1="240" y1="180" x2="240" y2="211" gradientUnits="userSpaceOnUse" id="color-1"><stop offset="0" stop-color="#b1b1b1" stop-opacity="0"/><stop offset="1" stop-color="#b1b1b1"/></linearGradient></defs><g transform="translate(-203.70652,-147.75)"><g data-paper-data="{&quot;isPaintingLayer&quot;:true}" fill-rule="nonzero" stroke-linecap="butt" stroke-linejoin="miter" stroke-miterlimit="10" stroke-dasharray="" stroke-dashoffset="0" style="mix-blend-mode: normal"><path d="M204.95652,211v-62h70.08696v62z" fill="#000000" stroke="#ffa35c" stroke-width="2.5"/><text transform="translate(211.58775,176.27662) scale(0.32272,0.32272)" font-size="40" xml:space="preserve" fill="#ffa35c" fill-rule="nonzero" stroke="none" stroke-width="1" stroke-linecap="butt" stroke-linejoin="miter" stroke-miterlimit="10" stroke-dasharray="" stroke-dashoffset="0" font-family="Sans Serif" font-weight="normal" text-anchor="start" style="mix-blend-mode: normal"><tspan x="0" dy="0">+3 points</tspan><tspan x="0" dy="46.150000000000006px"> per click</tspan></text><path d="M204.95652,211v-31h70.08696v31z" fill="url(#color-1)" stroke="none" stroke-width="0"/><text transform="translate(239.5,204.26065) scale(0.39073,0.39073)" font-size="40" xml:space="preserve" fill="#ffffff" fill-rule="nonzero" stroke="none" stroke-width="1" stroke-linecap="butt" stroke-linejoin="miter" stroke-miterlimit="10" stroke-dasharray="" stroke-dashoffset="0" font-family="Sans Serif" font-weight="normal" text-anchor="start" style="mix-blend-mode: normal"><tspan x="0" dy="0">75</tspan></text><g stroke="none"><path d="M219.5,198.5c0,-4.97056 4.02944,-9 9,-9c4.97056,0 9,4.02944 9,9c0,4.97056 -4.02944,9 -9,9c-4.97056,0 -9,-4.02944 -9,-9z" fill="#ffdb33" stroke-width="0"/><path d="M222.17568,198.5c0,-3.49283 2.83149,-6.32432 6.32432,-6.32432c3.49283,0 6.32432,2.83149 6.32432,6.32432c0,3.49283 -2.83149,6.32432 -6.32432,6.32432c-3.49283,0 -6.32432,-2.83149 -6.32432,-6.32432z" fill="#ffe900" stroke-width="0"/><text transform="translate(225.7173,201.30642) scale(0.24324,0.24324)" font-size="40" xml:space="preserve" fill="#ffdb33" fill-rule="nonzero" stroke="none" stroke-width="1" stroke-linecap="butt" stroke-linejoin="miter" stroke-miterlimit="10" stroke-dasharray="" stroke-dashoffset="0" font-family="Sans Serif" font-weight="normal" text-anchor="start" style="mix-blend-mode: normal"><tspan x="0" dy="0">$</tspan></text></g></g></g></svg>