<svg version="1.1" xmlns="http://www.w3.org/2000/svg" xmlns:xlink="http://www.w3.org/1999/xlink" width="58.70766" height="52.22216" viewBox="0,0,58.70766,52.22216"><defs><linearGradient x1="240" y1="180" x2="240" y2="204.86108" gradientUnits="userSpaceOnUse" id="color-1"><stop offset="0" stop-color="#b1b1b1" stop-opacity="0"/><stop offset="1" stop-color="#b1b1b1"/></linearGradient></defs><g transform="translate(-210.64617,-153.88892)"><g data-paper-data="{&quot;isPaintingLayer&quot;:true}" fill-rule="nonzero" stroke-linecap="butt" stroke-linejoin="miter" stroke-miterlimit="10" stroke-dasharray="" stroke-dashoffset="0" style="mix-blend-mode: normal"><path d="M211.89617,204.86108v-49.72216h56.20766v49.72216z" fill="#87ff9c" stroke="#00ff2f" stroke-width="2.5"/><text transform="translate(217.51124,171.04187) scale(0.25881,0.25881)" font-size="40" xml:space="preserve" fill="#00da28" fill-rule="nonzero" stroke="none" stroke-width="1" stroke-linecap="butt" stroke-linejoin="miter" stroke-miterlimit="10" stroke-dasharray="" stroke-dashoffset="0" font-family="Sans Serif" font-weight="normal" text-anchor="start" style="mix-blend-mode: normal"><tspan x="0" dy="0">+100 click</tspan><tspan x="0" dy="46.150000000000006px">      per</tspan><tspan x="0" dy="46.150000000000006px">  second</tspan></text><path d="M212.35373,204.86108v-24.86108h55.29253v24.86108z" fill="url(#color-1)" stroke="none" stroke-width="0"/><text transform="translate(238.05955,199.45632) scale(0.31335,0.31335)" font-size="40" xml:space="preserve" fill="#ffffff" fill-rule="nonzero" stroke="none" stroke-width="1" stroke-linecap="butt" stroke-linejoin="miter" stroke-miterlimit="10" stroke-dasharray="" stroke-dashoffset="0" font-family="Sans Serif" font-weight="normal" text-anchor="start" style="mix-blend-mode: normal"><tspan x="0" dy="0">10k</tspan></text><g stroke="none"><path d="M222.00774,195.29401c0,-3.98624 3.23149,-7.21773 7.21773,-7.21773c3.98624,0 7.21773,3.23149 7.21773,7.21773c0,3.98624 -3.23149,7.21773 -7.21773,7.21773c-3.98624,0 -7.21773,-3.23149 -7.21773,-7.21773z" fill="#ffdb33" stroke-width="0"/><path d="M224.15356,195.29401c0,-2.80115 2.27077,-5.07192 5.07192,-5.07192c2.80115,0 5.07192,2.27077 5.07192,5.07192c0,2.80115 -2.27077,5.07192 -5.07192,5.07192c-2.80115,0 -5.07192,-2.27077 -5.07192,-5.07192z" fill="#ffe900" stroke-width="0"/><text transform="translate(226.99383,197.54468) scale(0.19507,0.19507)" font-size="40" xml:space="preserve" fill="#ffdb33" fill-rule="nonzero" stroke="none" stroke-width="1" stroke-linecap="butt" stroke-linejoin="miter" stroke-miterlimit="10" stroke-dasharray="" stroke-dashoffset="0" font-family="Sans Serif" font-weight="normal" text-anchor="start" style="mix-blend-mode: normal"><tspan x="0" dy="0">$</tspan></text></g></g></g></svg>