<svg version="1.1" xmlns="http://www.w3.org/2000/svg" xmlns:xlink="http://www.w3.org/1999/xlink" width="71.2581" height="71.2581" viewBox="0,0,71.2581,71.2581"><defs><linearGradient x1="240" y1="167.62565" x2="240" y2="208.88482" gradientUnits="userSpaceOnUse" id="color-1"><stop offset="0" stop-color="#b1b1b1" stop-opacity="0"/><stop offset="1" stop-color="#b1b1b1"/></linearGradient></defs><g transform="translate(-204.37095,-144.37095)"><g data-paper-data="{&quot;isPaintingLayer&quot;:true}" fill-rule="nonzero" stroke-linecap="butt" stroke-linejoin="miter" stroke-miterlimit="10" stroke-dasharray="" stroke-dashoffset="0" style="mix-blend-mode: normal"><path d="M211.40499,180c0,-15.79259 12.80243,-28.59501 28.59501,-28.59501c15.79259,0 28.59501,12.80243 28.59501,28.59501c0,15.79259 -12.80243,28.59501 -28.59501,28.59501c-15.79259,0 -28.59501,-12.80243 -28.59501,-28.59501z" fill="#4f5fff" stroke="#5fe046" stroke-width="2.5"/><text transform="translate(217.77489,172.11008) scale(0.22795,0.22795)" font-size="40" xml:space="preserve" fill="#5fe046" fill-rule="nonzero" stroke="none" stroke-width="1" stroke-linecap="butt" stroke-linejoin="miter" stroke-miterlimit="10" stroke-dasharray="" stroke-dashoffset="0" font-family="Sans Serif" font-weight="normal" text-anchor="start" style="mix-blend-mode: normal"><tspan x="0" dy="0">    100M</tspan><tspan x="0" dy="46.150000000000006px">points per</tspan><tspan x="0" dy="46.150000000000006px">     click</tspan></text><path d="M210.82536,179.71019c0,-16.11272 58.34928,-16.11271 58.34928,0c0,16.11272 -13.06194,29.17464 -29.17464,29.17464c-16.11272,0 -29.17464,-13.06194 -29.17464,-29.17464z" fill="url(#color-1)" stroke="none" stroke-width="0"/><text transform="translate(236.67884,196.84688) scale(0.27599,0.27599)" font-size="40" xml:space="preserve" fill="#ffffff" fill-rule="nonzero" stroke="none" stroke-width="1" stroke-linecap="butt" stroke-linejoin="miter" stroke-miterlimit="10" stroke-dasharray="" stroke-dashoffset="0" font-family="Sans Serif" font-weight="normal" text-anchor="start" style="mix-blend-mode: normal"><tspan x="0" dy="0">1B</tspan></text><g stroke="none"><path d="M223.14528,192.7778c0,-3.51099 2.84623,-6.35721 6.35721,-6.35721c3.51099,0 6.35721,2.84623 6.35721,6.35721c0,3.51099 -2.84623,6.35721 -6.35721,6.35721c-3.51099,0 -6.35721,-2.84623 -6.35721,-6.35721z" fill="#ffdb33" stroke-width="0"/><path d="M225.03526,192.7778c0,-2.46719 2.00005,-4.46723 4.46723,-4.46723c2.46719,0 4.46723,2.00005 4.46723,4.46723c0,2.46719 -2.00005,4.46723 -4.46723,4.46723c-2.46719,0 -4.46723,-2.00005 -4.46723,-4.46723z" fill="#ffe900" stroke-width="0"/><text transform="translate(227.53692,194.76013) scale(0.17181,0.17181)" font-size="40" xml:space="preserve" fill="#ffdb33" fill-rule="nonzero" stroke="none" stroke-width="1" stroke-linecap="butt" stroke-linejoin="miter" stroke-miterlimit="10" stroke-dasharray="" stroke-dashoffset="0" font-family="Sans Serif" font-weight="normal" text-anchor="start" style="mix-blend-mode: normal"><tspan x="0" dy="0">$</tspan></text></g><path d="M204.37095,215.62905v-71.2581h71.2581v71.2581z" fill="none" stroke="none" stroke-width="NaN"/></g></g></svg>